<svg width="87" height="108" viewBox="0 0 87 108" fill="none" xmlns="http://www.w3.org/2000/svg">
<g id="building">
<path id="Vector" d="M46.2188 6.75H16.3125C14.1493 6.75 12.0748 7.81674 10.5452 9.71554C9.01557 11.6143 8.15625 14.1897 8.15625 16.875V91.125C8.15625 93.8103 9.01557 96.3857 10.5452 98.2845C12.0748 100.183 14.1493 101.25 16.3125 101.25H70.6875C72.8507 101.25 74.9252 100.183 76.4548 98.2845C77.9844 96.3857 78.8438 93.8103 78.8438 91.125V54C78.8438 51.3147 77.9844 48.7393 76.4548 46.8405C74.9252 44.9417 72.8507 43.875 70.6875 43.875H54.375V16.875C54.375 14.1897 53.5157 11.6143 51.9861 9.71554C50.4565 7.81674 48.3819 6.75 46.2188 6.75ZM10.875 91.125V16.875C10.875 15.0848 11.4479 13.3679 12.4676 12.102C13.4873 10.8362 14.8704 10.125 16.3125 10.125H46.2188C47.6609 10.125 49.0439 10.8362 50.0636 12.102C51.0834 13.3679 51.6562 15.0848 51.6562 16.875V97.875H40.7812V75.9375C40.7812 75.4899 40.638 75.0607 40.3831 74.7443C40.1282 74.4278 39.7824 74.25 39.4219 74.25H23.1094C22.7488 74.25 22.4031 74.4278 22.1482 74.7443C21.8932 75.0607 21.75 75.4899 21.75 75.9375V97.875H16.3125C14.8704 97.875 13.4873 97.1638 12.4676 95.898C11.4479 94.6321 10.875 92.9152 10.875 91.125ZM24.4688 97.875V77.625H38.0625V97.875H24.4688ZM70.6875 47.25C72.1296 47.25 73.5127 47.9612 74.5324 49.227C75.5521 50.4929 76.125 52.2098 76.125 54V91.125C76.125 92.9152 75.5521 94.6321 74.5324 95.898C73.5127 97.1638 72.1296 97.875 70.6875 97.875H54.375V47.25H70.6875Z" fill="white"/>
<path id="Vector_2" d="M17.6719 27H23.1094C23.4699 27 23.8157 26.8222 24.0706 26.5057C24.3255 26.1893 24.4688 25.7601 24.4688 25.3125V18.5625C24.4688 18.1149 24.3255 17.6857 24.0706 17.3693C23.8157 17.0528 23.4699 16.875 23.1094 16.875H17.6719C17.3113 16.875 16.9656 17.0528 16.7107 17.3693C16.4557 17.6857 16.3125 18.1149 16.3125 18.5625V25.3125C16.3125 25.7601 16.4557 26.1893 16.7107 26.5057C16.9656 26.8222 17.3113 27 17.6719 27ZM19.0312 20.25H21.75V23.625H19.0312V20.25ZM17.6719 43.875H23.1094C23.4699 43.875 23.8157 43.6972 24.0706 43.3807C24.3255 43.0643 24.4688 42.6351 24.4688 42.1875V35.4375C24.4688 34.9899 24.3255 34.5607 24.0706 34.2443C23.8157 33.9278 23.4699 33.75 23.1094 33.75H17.6719C17.3113 33.75 16.9656 33.9278 16.7107 34.2443C16.4557 34.5607 16.3125 34.9899 16.3125 35.4375V42.1875C16.3125 42.6351 16.4557 43.0643 16.7107 43.3807C16.9656 43.6972 17.3113 43.875 17.6719 43.875ZM19.0312 37.125H21.75V40.5H19.0312V37.125ZM23.1094 60.75C23.4699 60.75 23.8157 60.5722 24.0706 60.2557C24.3255 59.9393 24.4688 59.5101 24.4688 59.0625V52.3125C24.4688 51.8649 24.3255 51.4357 24.0706 51.1193C23.8157 50.8028 23.4699 50.625 23.1094 50.625H17.6719C17.3113 50.625 16.9656 50.8028 16.7107 51.1193C16.4557 51.4357 16.3125 51.8649 16.3125 52.3125V59.0625C16.3125 59.5101 16.4557 59.9393 16.7107 60.2557C16.9656 60.5722 17.3113 60.75 17.6719 60.75H23.1094ZM19.0312 54H21.75V57.375H19.0312V54ZM39.4219 27H44.8594C45.2199 27 45.5657 26.8222 45.8206 26.5057C46.0755 26.1893 46.2188 25.7601 46.2188 25.3125V18.5625C46.2188 18.1149 46.0755 17.6857 45.8206 17.3693C45.5657 17.0528 45.2199 16.875 44.8594 16.875H39.4219C39.0613 16.875 38.7156 17.0528 38.4607 17.3693C38.2057 17.6857 38.0625 18.1149 38.0625 18.5625V25.3125C38.0625 25.7601 38.2057 26.1893 38.4607 26.5057C38.7156 26.8222 39.0613 27 39.4219 27ZM40.7812 20.25H43.5V23.625H40.7812V20.25ZM39.4219 43.875H44.8594C45.2199 43.875 45.5657 43.6972 45.8206 43.3807C46.0755 43.0643 46.2188 42.6351 46.2188 42.1875V35.4375C46.2188 34.9899 46.0755 34.5607 45.8206 34.2443C45.5657 33.9278 45.2199 33.75 44.8594 33.75H39.4219C39.0613 33.75 38.7156 33.9278 38.4607 34.2443C38.2057 34.5607 38.0625 34.9899 38.0625 35.4375V42.1875C38.0625 42.6351 38.2057 43.0643 38.4607 43.3807C38.7156 43.6972 39.0613 43.875 39.4219 43.875ZM40.7812 37.125H43.5V40.5H40.7812V37.125ZM39.4219 60.75H44.8594C45.2199 60.75 45.5657 60.5722 45.8206 60.2557C46.0755 59.9393 46.2188 59.5101 46.2188 59.0625V52.3125C46.2188 51.8649 46.0755 51.4357 45.8206 51.1193C45.5657 50.8028 45.2199 50.625 44.8594 50.625H39.4219C39.0613 50.625 38.7156 50.8028 38.4607 51.1193C38.2057 51.4357 38.0625 51.8649 38.0625 52.3125V59.0625C38.0625 59.5101 38.2057 59.9393 38.4607 60.2557C38.7156 60.5722 39.0613 60.75 39.4219 60.75ZM40.7812 54H43.5V57.375H40.7812V54ZM63.8906 64.125H69.3281C69.6887 64.125 70.0344 63.9472 70.2893 63.6307C70.5443 63.3143 70.6875 62.8851 70.6875 62.4375V55.6875C70.6875 55.2399 70.5443 54.8107 70.2893 54.4943C70.0344 54.1778 69.6887 54 69.3281 54H63.8906C63.5301 54 63.1843 54.1778 62.9294 54.4943C62.6745 54.8107 62.5312 55.2399 62.5312 55.6875V62.4375C62.5312 62.8851 62.6745 63.3143 62.9294 63.6307C63.1843 63.9472 63.5301 64.125 63.8906 64.125ZM65.25 57.375H67.9688V60.75H65.25V57.375ZM63.8906 81H69.3281C69.6887 81 70.0344 80.8222 70.2893 80.5057C70.5443 80.1893 70.6875 79.7601 70.6875 79.3125V72.5625C70.6875 72.1149 70.5443 71.6857 70.2893 71.3693C70.0344 71.0528 69.6887 70.875 69.3281 70.875H63.8906C63.5301 70.875 63.1843 71.0528 62.9294 71.3693C62.6745 71.6857 62.5312 72.1149 62.5312 72.5625V79.3125C62.5312 79.7601 62.6745 80.1893 62.9294 80.5057C63.1843 80.8222 63.5301 81 63.8906 81ZM65.25 74.25H67.9688V77.625H65.25V74.25Z" fill="white"/>
</g>
</svg>
