<svg width="70" height="71" viewBox="0 0 70 71" fill="none" xmlns="http://www.w3.org/2000/svg">
<rect width="70" height="71" fill="#2F8FAD"/>
<path d="M65.625 33.2812C65.1691 33.2783 64.7256 33.1309 64.3563 32.8597L35 11.6041L5.64378 32.8597C5.17282 33.1426 4.61439 33.2362 4.07875 33.1219C3.54311 33.0076 3.06917 32.6938 2.7505 32.2424C2.43183 31.791 2.29159 31.2348 2.35745 30.6836C2.42332 30.1325 2.69051 29.6264 3.10628 29.2653L33.7313 7.07781C34.1018 6.81027 34.5452 6.66649 35 6.66649C35.4548 6.66649 35.8983 6.81027 36.2688 7.07781L66.8938 29.2653C67.2673 29.5396 67.5458 29.9265 67.6895 30.3708C67.8333 30.8152 67.8349 31.2943 67.6942 31.7396C67.5535 32.185 67.2776 32.5738 66.906 32.8507C66.5344 33.1276 66.0861 33.2783 65.625 33.2812ZM10.9375 19.9688C10.3574 19.9688 9.80097 19.735 9.39074 19.3189C8.9805 18.9028 8.75003 18.3384 8.75003 17.75V8.875C8.75003 8.28655 8.9805 7.7222 9.39074 7.30611C9.80097 6.89001 10.3574 6.65625 10.9375 6.65625H19.6875C20.2677 6.65625 20.8241 6.89001 21.2343 7.30611C21.6446 7.7222 21.875 8.28655 21.875 8.875C21.875 9.46345 21.6446 10.0278 21.2343 10.4439C20.8241 10.86 20.2677 11.0938 19.6875 11.0938H13.125V17.75C13.125 18.3384 12.8946 18.9028 12.4843 19.3189C12.0741 19.735 11.5177 19.9688 10.9375 19.9688Z" fill="white"/>
<path d="M54.6875 64.3438H43.75C43.1698 64.3438 42.6134 64.11 42.2032 63.6939C41.793 63.2778 41.5625 62.7134 41.5625 62.125V46.5938H28.4375V62.125C28.4375 62.7134 28.207 63.2778 27.7968 63.6939C27.3866 64.11 26.8302 64.3438 26.25 64.3438H15.3125C13.572 64.3438 11.9028 63.6425 10.6721 62.3942C9.4414 61.1459 8.75 59.4528 8.75 57.6875V35.5C8.75 34.9116 8.98047 34.3472 9.3907 33.9311C9.80094 33.515 10.3573 33.2812 10.9375 33.2812C11.5177 33.2812 12.0741 33.515 12.4843 33.9311C12.8945 34.3472 13.125 34.9116 13.125 35.5V57.6875C13.125 58.2759 13.3555 58.8403 13.7657 59.2564C14.1759 59.6725 14.7323 59.9062 15.3125 59.9062H24.0625V44.375C24.0625 43.7866 24.293 43.2222 24.7032 42.8061C25.1134 42.39 25.6698 42.1562 26.25 42.1562H43.75C44.3302 42.1562 44.8866 42.39 45.2968 42.8061C45.707 43.2222 45.9375 43.7866 45.9375 44.375V59.9062H54.6875C55.2677 59.9062 55.8241 59.6725 56.2343 59.2564C56.6445 58.8403 56.875 58.2759 56.875 57.6875V35.5C56.875 34.9116 57.1055 34.3472 57.5157 33.9311C57.9259 33.515 58.4823 33.2812 59.0625 33.2812C59.6427 33.2812 60.1991 33.515 60.6093 33.9311C61.0195 34.3472 61.25 34.9116 61.25 35.5V57.6875C61.25 59.4528 60.5586 61.1459 59.3279 62.3942C58.0972 63.6425 56.428 64.3438 54.6875 64.3438Z" fill="white"/>
</svg>
