<svg width="58" height="97" viewBox="0 0 58 97" fill="none" xmlns="http://www.w3.org/2000/svg">
<g id="people">
<path id="Vector" d="M28.8049 40.3749C30.988 40.3809 33.123 39.3045 34.9399 37.282C36.7568 35.2596 38.1738 32.3819 39.0117 29.0132C39.8496 25.6444 40.0706 21.9361 39.6469 18.3573C39.2232 14.7786 38.1738 11.4903 36.6314 8.90857C35.089 6.32685 33.1229 4.56775 30.9821 3.85385C28.8412 3.13995 26.6218 3.50335 24.6045 4.89805C22.5873 6.29275 20.863 8.65608 19.6498 11.689C18.4366 14.7219 17.789 18.288 17.789 21.9361C17.789 26.8212 18.949 31.5067 21.0144 34.9637C23.0798 38.4208 25.8817 40.367 28.8049 40.3749ZM28.8049 9.52367C30.2791 9.51774 31.7211 10.2432 32.9482 11.6081C34.1754 12.973 35.1325 14.916 35.6983 17.1907C36.2641 19.4655 36.413 21.9697 36.1263 24.3861C35.8396 26.8025 35.1301 29.0223 34.0877 30.7642C33.0453 32.5061 31.717 33.6918 30.271 34.1709C28.8251 34.65 27.3265 34.4011 25.9653 33.4557C24.604 32.5102 23.4414 30.9108 22.6246 28.86C21.8078 26.8093 21.3737 24.3996 21.3772 21.9361C21.382 18.6466 22.1661 15.494 23.558 13.1679C24.9499 10.8419 26.8364 9.53159 28.8049 9.52367ZM49.2221 80.9103C47.0692 90.1747 37.2732 93.4727 28.8049 93.4727C20.3367 93.4727 10.5407 90.1747 8.38776 80.9103C7.23952 75.9633 8.26217 68.6178 11.061 61.752C13.0079 56.8411 15.6406 52.7955 18.7319 49.9645C21.8232 47.1334 25.2803 45.6018 28.8049 45.5018C32.9647 45.654 37.013 47.778 40.4784 51.6263C43.9438 55.4746 46.6836 60.8889 48.3789 67.2386C48.4999 67.6023 48.5743 68.0041 48.5974 68.4185C48.6204 68.8329 48.5916 69.2507 48.5127 69.6454C48.4339 70.0402 48.3067 70.4032 48.1393 70.7113C47.9719 71.0194 47.768 71.2659 47.5404 71.4351C47.3129 71.6043 47.0668 71.6925 46.8178 71.6941C46.5688 71.6957 46.3223 71.6107 46.094 71.4444C45.8657 71.2781 45.6606 71.0341 45.4919 70.7282C45.3231 70.4222 45.1942 70.0609 45.1136 69.6672C43.6763 64.4025 41.3883 59.9126 38.5071 56.7028C35.6259 53.4929 32.2658 51.6904 28.8049 51.4982C25.8659 51.5977 22.9856 52.8918 20.4129 55.2686C17.8403 57.6455 15.6527 61.0335 14.0393 65.1399C11.6351 70.9864 11.1507 76.2931 11.7248 78.7516C12.909 83.8186 20.0855 87.4763 28.8049 87.4763C37.5244 87.4763 44.7009 83.8186 45.885 78.7516C46.0794 78.0682 46.4211 77.5328 46.8418 77.2529C47.2625 76.9729 47.7309 76.9692 48.1532 77.2423C48.5755 77.5155 48.9203 78.0454 49.1186 78.7257C49.3168 79.406 49.3538 80.1864 49.2221 80.9103Z" fill="white"/>
</g>
</svg>
