<svg width="40" height="36" viewBox="0 0 40 36" fill="none" xmlns="http://www.w3.org/2000/svg">
<g id="&#240;&#159;&#166;&#134; icon &#34;Magnifying Glass&#34;">
<g id="Group">
<path id="Vector" d="M14.1643 6.81559C12.2301 6.88329 10.4836 7.50429 9.54925 8.34539C9.11536 8.73599 8.4118 8.73599 7.97791 8.34549C7.54391 7.95509 7.5438 7.32189 7.97769 6.93129C9.41925 5.63369 11.7652 4.89809 14.0778 4.81709C16.4055 4.73559 18.9467 5.30919 20.7264 6.91119C21.1601 7.30169 21.1601 7.93489 20.7261 8.32539C20.2923 8.71589 19.5887 8.71579 19.1548 8.32529C17.9426 7.23399 16.0831 6.74839 14.1643 6.81559Z" fill="#333333"/>
<path id="Vector_2" fill-rule="evenodd" clip-rule="evenodd" d="M25.4839 21.3841C27.6084 19.1207 28.8889 16.1949 28.8889 13C28.8889 5.8203 22.4219 0 14.4445 0C6.467 0 0 5.8203 0 13C0 20.1797 6.467 26 14.4445 26C17.9943 26 21.2452 24.8475 23.7601 22.9355L23.3333 25.1442L31.6819 32.6579L36.2866 28.5137L27.938 21L25.4839 21.3841ZM14.4445 23C20.5809 23 25.5556 18.5228 25.5556 13C25.5556 7.47721 20.5809 3 14.4445 3C8.30801 3 3.33334 7.47721 3.33334 13C3.33334 18.5228 8.30801 23 14.4445 23Z" fill="#333333"/>
<path id="Vector_3" d="M33.2532 34.0721L37.8578 29.9279L39.3642 31.2837C40.2118 32.0466 40.2118 33.2835 39.3642 34.0464L37.8293 35.4278C36.9816 36.1907 35.6073 36.1907 34.7596 35.4278L33.2532 34.0721Z" fill="#333333"/>
</g>
</g>
</svg>
