<svg width="84" height="101" viewBox="0 0 84 101" fill="none" xmlns="http://www.w3.org/2000/svg">
<g id="&#240;&#159;&#166;&#134; icon &#34;password icon&#34;">
<path id="Vector" d="M65.1 89.7778C64.019 96.1807 59.3109 101 53.6667 101H11.6667C5.22334 101 0 94.7196 0 86.9722V47.6944C0 40.9079 4.00811 35.247 9.33333 33.9473V28.0556C9.33333 12.5609 19.78 0 32.6667 0C45.5533 0 56 12.5609 56 28.0556V33.9473C61.3252 35.247 65.3333 40.9079 65.3333 47.6944V56.1111H72.3333C78.7766 56.1111 84 62.3916 84 70.1389V75.75C84 83.4973 78.7766 89.7778 72.3333 89.7778H65.1ZM60.2684 89.7778H39.6667C33.2233 89.7778 28 83.4973 28 75.75V70.1389C28 62.3916 33.2233 56.1111 39.6667 56.1111H60.6667V47.6944C60.6667 43.2644 57.8202 39.6337 54.2064 39.3024C54.0331 39.3517 53.8524 39.3778 53.6667 39.3778C53.452 39.3778 53.2442 39.343 53.0468 39.2778H11.6667C7.80067 39.2778 4.66667 43.046 4.66667 47.6944V86.9722C4.66667 91.6206 7.80067 95.3889 11.6667 95.3889H53.6667C56.7145 95.3889 59.3074 93.0468 60.2684 89.7778ZM14 33.6667H51.3333V28.0556C51.3333 15.6598 42.976 5.61111 32.6667 5.61111C22.3573 5.61111 14 15.6598 14 28.0556V33.6667ZM79.3333 75.75V70.1389C79.3333 65.4905 76.1993 61.7222 72.3333 61.7222H39.6667C35.8007 61.7222 32.6667 65.4905 32.6667 70.1389V75.75C32.6667 80.3984 35.8007 84.1667 39.6667 84.1667H72.3333C76.1993 84.1667 79.3333 80.3984 79.3333 75.75ZM39.6667 67.3333H44.3333C45.622 67.3333 46.6667 68.5894 46.6667 70.1389V75.75C46.6667 77.2995 45.622 78.5556 44.3333 78.5556H39.6667C38.378 78.5556 37.3333 77.2995 37.3333 75.75V70.1389C37.3333 68.5894 38.378 67.3333 39.6667 67.3333ZM53.6667 67.3333H58.3333C59.622 67.3333 60.6667 68.5894 60.6667 70.1389V75.75C60.6667 77.2995 59.622 78.5556 58.3333 78.5556H53.6667C52.378 78.5556 51.3333 77.2995 51.3333 75.75V70.1389C51.3333 68.5894 52.378 67.3333 53.6667 67.3333ZM67.6667 67.3333H72.3333C73.622 67.3333 74.6667 68.5894 74.6667 70.1389V75.75C74.6667 77.2995 73.622 78.5556 72.3333 78.5556H67.6667C66.378 78.5556 65.3333 77.2995 65.3333 75.75V70.1389C65.3333 68.5894 66.378 67.3333 67.6667 67.3333Z" fill="white" fill-opacity="0.89"/>
</g>
</svg>
